<svg xmlns="http://www.w3.org/2000/svg" width="1500" height="1040" viewBox="0 0 1500 1040"><style>text{font-family:Aptos,Arial,sans-serif}.label{font-size:36px;fill:#263A52}.value{font-size:32px;fill:#263A52}.tick{font-size:28px;fill:#64748B}.zero{font-size:25px;font-weight:700;fill:#4B5563}.head{font-family:Arial,sans-serif;font-size:34px;font-weight:900;fill:#243B57;stroke:#243B57;stroke-width:.45px;letter-spacing:.35px}</style><line x1="195.88235294117646" y1="72" x2="195.88235294117646" y2="910" stroke="#667085" stroke-width="4"/><text class="tick" x="195.88235294117646" y="958" text-anchor="middle">0.00</text><line x1="385.5882352941177" y1="72" x2="385.5882352941177" y2="910" stroke="#DCE5ED" stroke-width="2"/><text class="tick" x="385.5882352941177" y="958" text-anchor="middle">0.05</text><line x1="575.2941176470588" y1="72" x2="575.2941176470588" y2="910" stroke="#DCE5ED" stroke-width="2"/><text class="tick" x="575.2941176470588" y="958" text-anchor="middle">0.10</text><line x1="764.9999999999999" y1="72" x2="764.9999999999999" y2="910" stroke="#DCE5ED" stroke-width="2"/><text class="tick" x="764.9999999999999" y="958" text-anchor="middle">0.15</text><line x1="954.7058823529411" y1="72" x2="954.7058823529411" y2="910" stroke="#DCE5ED" stroke-width="2"/><text class="tick" x="954.7058823529411" y="958" text-anchor="middle">0.20</text><line x1="1144.4117647058822" y1="72" x2="1144.4117647058822" y2="910" stroke="#DCE5ED" stroke-width="2"/><text class="tick" x="1144.4117647058822" y="958" text-anchor="middle">0.25</text><line x1="1334.1176470588234" y1="72" x2="1334.1176470588234" y2="910" stroke="#DCE5ED" stroke-width="2"/><text class="tick" x="1334.1176470588234" y="958" text-anchor="middle">0.30</text><text class="zero" x="195.88235294117646" y="50" text-anchor="middle">Δ = 0</text><line x1="575.6735294117647" y1="130" x2="915.6264705882352" y2="130" stroke="#55768E" stroke-width="6"/><line x1="575.6735294117647" y1="113" x2="575.6735294117647" y2="147" stroke="#55768E" stroke-width="5"/><line x1="915.6264705882352" y1="113" x2="915.6264705882352" y2="147" stroke="#55768E" stroke-width="5"/><circle cx="746.4088235294117" cy="130" r="12" fill="#55768E" stroke="#FFFFFF" stroke-width="3"/><line x1="481.57941176470587" y1="218" x2="809.7705882352941" y2="218" stroke="#55768E" stroke-width="6"/><line x1="481.57941176470587" y1="201" x2="481.57941176470587" y2="235" stroke="#55768E" stroke-width="5"/><line x1="809.7705882352941" y1="201" x2="809.7705882352941" y2="235" stroke="#55768E" stroke-width="5"/><circle cx="644.3470588235293" cy="218" r="12" fill="#55768E" stroke="#FFFFFF" stroke-width="3"/><line x1="929.6647058823528" y1="306" x2="1247.6117647058825" y2="306" stroke="#55768E" stroke-width="6"/><line x1="929.6647058823528" y1="289" x2="929.6647058823528" y2="323" stroke="#55768E" stroke-width="5"/><line x1="1247.6117647058825" y1="289" x2="1247.6117647058825" y2="323" stroke="#55768E" stroke-width="5"/><circle cx="1089.0176470588235" cy="306" r="12" fill="#55768E" stroke="#FFFFFF" stroke-width="3"/><line x1="442.1205882352941" y1="394" x2="774.1058823529411" y2="394" stroke="#55768E" stroke-width="6"/><line x1="442.1205882352941" y1="377" x2="442.1205882352941" y2="411" stroke="#55768E" stroke-width="5"/><line x1="774.1058823529411" y1="377" x2="774.1058823529411" y2="411" stroke="#55768E" stroke-width="5"/><circle cx="609.820588235294" cy="394" r="12" fill="#55768E" stroke="#FFFFFF" stroke-width="3"/><rect x="96" y="448" width="1338" height="68" rx="16" fill="#DCECF7" fill-opacity="0.72"/><line x1="1011.9970588235293" y1="482" x2="1329.1852941176471" y2="482" stroke="#0B6AA8" stroke-width="6"/><line x1="1011.9970588235293" y1="465" x2="1011.9970588235293" y2="499" stroke="#0B6AA8" stroke-width="5"/><line x1="1329.1852941176471" y1="465" x2="1329.1852941176471" y2="499" stroke="#0B6AA8" stroke-width="5"/><circle cx="1170.9705882352941" cy="482" r="12" fill="#0B6AA8" stroke="#FFFFFF" stroke-width="3"/><line x1="845.0558823529411" y1="570" x2="1176.2823529411764" y2="570" stroke="#55768E" stroke-width="6"/><line x1="845.0558823529411" y1="553" x2="845.0558823529411" y2="587" stroke="#55768E" stroke-width="5"/><line x1="1176.2823529411764" y1="553" x2="1176.2823529411764" y2="587" stroke="#55768E" stroke-width="5"/><circle cx="1010.4794117647058" cy="570" r="12" fill="#55768E" stroke="#FFFFFF" stroke-width="3"/><line x1="719.8499999999999" y1="658" x2="1042.35" y2="658" stroke="#55768E" stroke-width="6"/><line x1="719.8499999999999" y1="641" x2="719.8499999999999" y2="675" stroke="#55768E" stroke-width="5"/><line x1="1042.35" y1="641" x2="1042.35" y2="675" stroke="#55768E" stroke-width="5"/><circle cx="880.3411764705882" cy="658" r="12" fill="#55768E" stroke="#FFFFFF" stroke-width="3"/><line x1="682.2882352941176" y1="746" x2="1011.2382352941175" y2="746" stroke="#55768E" stroke-width="6"/><line x1="682.2882352941176" y1="729" x2="682.2882352941176" y2="763" stroke="#55768E" stroke-width="5"/><line x1="1011.2382352941175" y1="729" x2="1011.2382352941175" y2="763" stroke="#55768E" stroke-width="5"/><circle cx="846.5735294117648" cy="746" r="12" fill="#55768E" stroke="#FFFFFF" stroke-width="3"/><line x1="827.2235294117645" y1="834" x2="1148.2058823529412" y2="834" stroke="#55768E" stroke-width="6"/><line x1="827.2235294117645" y1="817" x2="827.2235294117645" y2="851" stroke="#55768E" stroke-width="5"/><line x1="1148.2058823529412" y1="817" x2="1148.2058823529412" y2="851" stroke="#55768E" stroke-width="5"/><circle cx="987.7147058823529" cy="834" r="12" fill="#55768E" stroke="#FFFFFF" stroke-width="3"/><line x1="120" y1="910" x2="1410" y2="910" stroke="#667085" stroke-width="3"/><text x="765" y="1020" text-anchor="middle" font-family="Aptos,Arial,sans-serif" font-size="32" fill="#263A52">Paired change in Verifier-B target probability relative to zero-shot</text></svg>